<?xml version="1.0" standalone="no"?>
<!DOCTYPE svg PUBLIC "-//W3C//DTD SVG 20010904//EN"
 "http://www.w3.org/TR/2001/REC-SVG-20010904/DTD/svg10.dtd">
<svg version="1.0" xmlns="http://www.w3.org/2000/svg"
 width="500.000000pt" height="500.000000pt" viewBox="0 0 500.000000 500.000000"
 preserveAspectRatio="xMidYMid meet">
<metadata>
Created by potrace 1.14, written by Peter Selinger 2001-2017
</metadata>
<g transform="translate(0.000000,500.000000) scale(0.100000,-0.100000)"
fill="#000000" stroke="none">
<path d="M290 2500 l0 -1080 230 0 230 0 0 480 0 480 415 0 415 0 0 -480 0
-480 230 0 230 0 0 663 c1 1161 2 1233 11 1210 4 -13 90 -310 189 -660 99
-351 217 -767 262 -925 l82 -288 211 0 212 0 42 203 c55 263 245 1205 266
1325 9 50 21 92 26 92 5 0 9 -6 10 -12 0 -7 2 -20 4 -28 3 -11 70 -347 101
-505 2 -11 6 -31 9 -45 7 -34 11 -50 34 -165 11 -55 50 -244 86 -420 36 -176
72 -347 79 -380 l12 -60 219 0 219 0 52 185 c29 102 163 581 299 1065 136 484
249 883 251 886 8 13 -72 18 -264 16 l-197 -2 -41 -180 c-23 -99 -71 -313
-108 -475 -37 -162 -73 -322 -81 -355 -15 -63 -83 -373 -107 -485 l-14 -65
-47 235 c-26 129 -67 330 -91 445 -23 116 -74 362 -112 548 l-69 338 -232 -2
c-127 -1 -236 -5 -242 -8 -9 -6 -29 -99 -141 -681 -29 -146 -67 -341 -85 -435
-18 -93 -43 -223 -55 -288 -12 -65 -26 -115 -30 -110 -4 4 -22 79 -39 166 -18
86 -79 363 -137 615 -57 251 -119 521 -136 600 l-33 142 -437 0 -438 0 0 -410
0 -410 -415 0 -415 0 0 410 0 410 -230 0 -230 0 0 -1080z"/>
</g>
</svg>
